<?xml version="1.0" encoding="utf-8"?>
<!-- Generator: Adobe Illustrator 16.0.0, SVG Export Plug-In . SVG Version: 6.00 Build 0)  -->
<!DOCTYPE svg PUBLIC "-//W3C//DTD SVG 1.1//EN" "http://www.w3.org/Graphics/SVG/1.1/DTD/svg11.dtd">
<svg version="1.1" id="Layer_1" xmlns="http://www.w3.org/2000/svg" xmlns:xlink="http://www.w3.org/1999/xlink" x="0px" y="0px"
	 width="387.671px" height="160.273px" viewBox="0 0 387.671 160.273" enable-background="new 0 0 387.671 160.273"
	 xml:space="preserve">
<g>
	<path fill="#624A9E" d="M194.43,88.543v44.789h-28.096V18.127h45.495c8.934,0,16.692,1.646,23.04,4.937
		c6.349,3.292,11.169,7.642,14.46,12.931c3.174,5.408,4.82,11.169,4.82,17.399c0,5.291-1.294,10.58-3.879,15.871
		c-2.588,5.289-7.055,9.874-13.402,13.636c-6.349,3.762-14.694,5.643-25.157,5.643H194.43z M221.939,63.387
		c2.468-2.469,3.644-5.878,3.644-9.994c0-3.996-1.293-7.405-3.762-9.992c-2.469-2.585-5.877-3.879-9.992-3.879H194.43v27.625h17.399
		C216.178,67.147,219.469,65.973,221.939,63.387z"/>
	<g>
		<g>
			<path fill="#624A9E" d="M126.319,40.839L71.87,6.345c-1.388-0.882-2.891-0.882-4.278,0L13.144,40.839
				c-1.619,1.026-2.659,3.229-2.659,5.431c0,2.348,1.04,4.404,2.659,5.431l54.448,34.642c0.694,0.441,1.388,0.586,2.197,0.586
				c0.694,0,1.503-0.145,2.197-0.586l54.448-34.495c1.617-1.028,2.659-3.082,2.659-5.43
				C128.977,44.068,127.937,41.865,126.319,40.839z M69.673,74.16L25.976,46.27l43.697-27.741l43.698,27.741L69.673,74.16z"/>
		</g>
	</g>
	<g>
		<g>
			<path fill="#624A9E" d="M128.399,112.765c-1.156-2.938-4.046-4.257-6.474-2.79l-52.252,33.321L17.42,109.975
				c-2.312-1.467-5.202-0.294-6.474,2.79c-1.156,2.934-0.231,6.604,2.197,8.218l54.448,34.495c0.694,0.441,1.388,0.586,2.197,0.586
				c0.694,0,1.503-0.145,2.197-0.586l54.448-34.495C128.63,119.369,129.555,115.698,128.399,112.765z"/>
		</g>
	</g>
	<g>
		<g>
			<path fill="#624A9E" d="M128.399,78.122c-1.156-2.935-4.046-4.256-6.474-2.79l-52.252,33.32L17.42,75.48
				c-2.312-1.469-5.202-0.293-6.474,2.79c-1.156,2.935-0.231,6.604,2.197,8.219l54.448,34.494c0.694,0.44,1.388,0.588,2.197,0.588
				c0.694,0,1.503-0.148,2.197-0.588l54.333-34.641C128.63,84.874,129.555,81.205,128.399,78.122z"/>
		</g>
	</g>
	
		<text transform="matrix(1 0 0 1 268.7393 133.355)" fill="#624A9E" stroke="#92278F" stroke-miterlimit="10" font-family="'PlayfairDisplaySC-Bold'" font-size="155">D</text>
</g>
</svg>
